<svg width="168.593" height="120.709" viewBox="0 0 168.593 120.709" xmlns="http://www.w3.org/2000/svg"><g fill="#f9f9f9"><path d="M29.532 6.064h4.77v.176q-1.556.1-2.812 2.41l-3.766 6.906v5.9q.075 1.055.64 1.47.565.414 2.071.54v.175h-8.21v-.176q1.632-.1 2.172-.602.54-.503.54-1.858v-5.349L21.094 8.6q-.704-1.306-1.256-1.808t-1.381-.552v-.176h6.78v.176q-1.683.15-1.683 1.255 0 .477.452 1.306l3.365 6.227 3.264-5.926q.528-.929.528-1.556 0-1.156-1.632-1.306zM42.664 24.143q-3.817 0-6.277-2.611-2.461-2.612-2.461-6.68 0-4.067 2.46-6.679 2.461-2.611 6.278-2.611 3.842 0 6.29 2.611 2.448 2.612 2.448 6.68 0 4.067-2.448 6.679-2.448 2.611-6.29 2.611zm-4.168-2.837l.703 1.092q.703 1.092 3.465 1.092t4.18-2.184q1.42-2.185 1.42-6.453 0-8.638-5.6-8.638-5.574 0-5.574 8.638 0 4.268 1.406 6.453zM69.205 6.064v.176q-1.105.125-1.582.728-.477.603-.477 1.984v8.21q0 3.39-1.531 5.186-1.532 1.795-4.62 1.795-3.19 0-4.91-1.82-1.72-1.82-1.72-5.311V8.424q0-1.13-.389-1.594-.39-.465-1.494-.59v-.176h6.755v.176q-1.18.15-1.595.602-.414.452-.414 1.683v8.286q0 2.963 1.18 4.495t3.465 1.532q4.646 0 4.646-6.127V9.052q0-1.406-.628-2.046-.628-.64-2.06-.766v-.176zM70.16 23.641v-.176q1.104-.125 1.481-.59.377-.464.377-1.795V8.424q0-1.13-.39-1.594-.389-.465-1.469-.59v-.176h6.83q3.365 0 4.884 1.067 1.52 1.067 1.52 3.177 0 1.983-1.633 3.151-1.632 1.168-3.992 1.168v.125q1.682-.025 2.938.716 1.255.74 1.858 2.222l1.406 3.315q.954 2.26 2.536 2.435v.201h-4.269q-.426-.703-1.28-2.687l-1.381-3.34q-.703-1.631-1.356-2.159-.653-.527-2.034-.527h-1.381v6.152q0 1.255.402 1.758.401.502 1.481.627v.176zm4.645-9.14h1.23q2.26 0 3.277-1.03 1.017-1.029 1.017-3.113 0-1.883-.829-2.85-.828-.967-3.063-.967h-1.632zM104.887 6.064h5.423v.176q-1.255.125-1.77.753-.515.628-.515 2.009v14.89h-.075L95.922 8.701v11.776q0 1.582.565 2.21.565.628 1.971.778v.176h-5.524v-.176q1.331-.125 1.846-.766.515-.64.515-2.222V7.922q-1.105-1.33-2.36-1.682v-.176h4.57l9.893 12.455V9.002q0-1.431-.54-2.009-.54-.577-1.971-.753zM120.103 24.143q-3.816 0-6.277-2.611-2.461-2.612-2.461-6.68 0-4.067 2.46-6.679 2.462-2.611 6.278-2.611 3.842 0 6.29 2.611 2.449 2.612 2.449 6.68 0 4.067-2.449 6.679-2.448 2.611-6.29 2.611zm-4.168-2.837l.703 1.092q.703 1.092 3.465 1.092t4.181-2.184q1.419-2.185 1.419-6.453 0-8.638-5.6-8.638-5.574 0-5.574 8.638 0 4.268 1.406 6.453zM131.654 23.967q-.678 0-1.143-.477-.464-.477-.464-1.155 0-.653.464-1.13.465-.477 1.143-.477.678 0 1.155.477t.477 1.13q0 .678-.465 1.155-.464.477-1.167.477zM141.045 23.641v-.226q1.808-.15 2.423-.565.615-.414.615-1.52v-8.01q0-.803-.276-1.167t-.954-.364q-.527 0-1.733.452l-.075-.251 5.374-2.31h.15v11.65q0 1.106.628 1.52.628.414 2.436.565v.226z"/></g><g fill="#f9f9f9"><path d="M43.769 54.275q-3.566 0-5.713-2.473-2.147-2.473-2.147-6.566 0-4.294 2.348-6.918 2.348-2.624 6.165-2.624 2.862 0 5.549 1.08l-.628 5.95-.226-.024q-.301-5.926-5.398-5.926-2.562 0-4.068 1.782-1.507 1.783-1.507 4.796 0 3.792 1.984 6.177 1.984 2.386 5.122 2.386 3.968 0 4.821-3.641l.201.05q-1.08 5.951-6.503 5.951zM69.205 36.372q-1.08.125-1.469.602-.389.478-.389 1.683v12.655q0 1.206.39 1.683.389.477 1.468.602v.176h-6.503v-.176q1.08-.125 1.469-.602t.389-1.683v-6.101h-7.985v6.101q0 1.206.39 1.683.388.477 1.493.602v.176H51.93v-.176q1.08-.125 1.469-.602t.389-1.683V38.657q0-1.205-.39-1.683-.389-.477-1.468-.602v-.176h6.528v.176q-1.105.125-1.494.602-.389.478-.389 1.683v5.926h7.985v-5.926q0-1.205-.39-1.683-.388-.477-1.468-.602v-.176h6.503zM79.25 54.275q-3.817 0-6.278-2.611-2.461-2.612-2.461-6.68 0-4.067 2.46-6.679 2.462-2.611 6.278-2.611 3.842 0 6.29 2.611 2.449 2.612 2.449 6.68 0 4.067-2.449 6.679-2.448 2.611-6.29 2.611zm-4.169-2.837l.703 1.092q.703 1.092 3.465 1.092t4.181-2.184q1.419-2.185 1.419-6.453 0-8.638-5.6-8.638-5.574 0-5.574 8.638 0 4.268 1.406 6.453zM95.822 36.372q-1.105.125-1.494.59-.39.464-.39 1.594v12.656q0 1.255.402 1.758.402.502 1.482.627v.176h-6.529v-.176q1.105-.125 1.482-.59.376-.464.376-1.795V38.556q0-1.13-.389-1.594-.389-.465-1.469-.59v-.176h6.529zM104.987 54.275q-3.566 0-5.712-2.473-2.147-2.473-2.147-6.566 0-4.294 2.347-6.918 2.348-2.624 6.165-2.624 2.862 0 5.55 1.08l-.629 5.95-.226-.024q-.3-5.926-5.398-5.926-2.561 0-4.068 1.782-1.507 1.783-1.507 4.796 0 3.792 1.984 6.177 1.984 2.386 5.123 2.386 3.967 0 4.82-3.641l.202.05q-1.08 5.951-6.504 5.951zM126.23 47.22h.176l-.653 6.553h-12.605v-.176q1.105-.125 1.481-.59.377-.464.377-1.795V38.556q0-1.13-.39-1.594-.388-.465-1.468-.59v-.176h12.279l.502 5.65h-.176q-.703-2.813-1.846-3.993-1.142-1.18-3.452-1.18h-2.662v7.86h1.833q1.582 0 2.36-.779.779-.778 1.08-2.536h.201v7.207h-.2q-.302-1.783-1.093-2.6-.791-.815-2.348-.815h-1.833v8.286h2.612q2.737 0 3.917-1.306 1.18-1.305 1.908-4.77zM129.218 57.037l-.1-.326q2.009-.603 2.009-1.808 0-.728-1.155-1.08-1.281-.376-1.281-1.481 0-.628.402-1.055.401-.427 1.104-.427.804 0 1.369.653t.565 1.858q0 1.23-.603 2.172-.602.942-2.31 1.494z"/></g><g fill="#f9f9f9"><path d="M33.687 66.328h4.67v.176q-.928.1-1.443.715-.515.616-1.042 2.122l-5.223 14.815h-.1l-4.294-11.6-4.118 11.6h-.1L16.511 69.14q-.502-1.43-.967-1.983-.464-.553-1.318-.653v-.176h6.654v.176q-1.582.15-1.582 1.306 0 .703.352 1.607l3.54 10.069 2.737-7.835-1.004-2.711q-.452-1.23-.841-1.708-.39-.477-1.193-.728v-.176h6.554v.176q-1.733.125-1.733 1.38 0 .453.226 1.08l3.767 10.471 3.465-10.018q.301-.779.301-1.432 0-1.38-1.783-1.481zM56.512 66.504q-1.08.125-1.469.602-.389.478-.389 1.683v12.655q0 1.206.39 1.683.388.477 1.468.602v.176H50.01v-.176q1.08-.125 1.469-.602t.389-1.683v-6.101h-7.985v6.101q0 1.206.39 1.683.388.477 1.493.602v.176h-6.528v-.176q1.08-.125 1.468-.602.39-.477.39-1.683V68.79q0-1.205-.39-1.683-.389-.477-1.468-.602v-.176h6.528v.176q-1.105.125-1.494.602-.39.478-.39 1.683v5.926h7.986v-5.926q0-1.205-.39-1.683-.389-.477-1.468-.602v-.176h6.503zM71.101 77.351h.176l-.653 6.554H58.019v-.176q1.105-.125 1.481-.59.377-.464.377-1.795V68.688q0-1.13-.39-1.594-.388-.465-1.468-.59v-.176h12.279l.502 5.65h-.176q-.703-2.813-1.846-3.993-1.142-1.18-3.452-1.18h-2.662v7.86h1.833q1.582 0 2.36-.779.779-.778 1.08-2.536h.201v7.207h-.2q-.302-1.783-1.093-2.6-.791-.815-2.348-.815h-1.833v8.286h2.612q2.737 0 3.917-1.306 1.18-1.305 1.908-4.77zM73.135 83.905v-.176q1.105-.125 1.482-.59.376-.464.376-1.795V68.688q0-1.13-.389-1.594-.39-.465-1.469-.59v-.176h6.83q3.365 0 4.884 1.067 1.519 1.067 1.519 3.177 0 1.983-1.632 3.151-1.632 1.168-3.993 1.168v.125q1.683-.025 2.938.716 1.256.74 1.858 2.222l1.407 3.315q.954 2.26 2.536 2.435v.201h-4.27q-.426-.703-1.28-2.687l-1.38-3.34q-.704-1.631-1.357-2.159-.653-.527-2.034-.527h-1.38v6.152q0 1.255.401 1.758.402.502 1.482.627v.176zm4.645-9.14h1.23q2.26 0 3.278-1.03 1.017-1.029 1.017-3.113 0-1.883-.83-2.85-.828-.967-3.062-.967H77.78zM103.443 77.351h.176l-.653 6.554H90.36v-.176q1.105-.125 1.482-.59.377-.464.377-1.795V68.688q0-1.13-.39-1.594-.389-.465-1.469-.59v-.176h12.28l.501 5.65h-.175q-.703-2.813-1.846-3.993-1.142-1.18-3.453-1.18h-2.661v7.86h1.833q1.582 0 2.36-.779.779-.778 1.08-2.536h.2v7.207h-.2q-.301-1.783-1.092-2.6-.791-.815-2.348-.815h-1.833v8.286h2.611q2.737 0 3.917-1.306 1.18-1.305 1.909-4.77zM113.311 84.156l-6.102-15.116q-.527-1.33-1.042-1.883-.515-.553-1.469-.653v-.176h7.132v.176q-1.934.125-1.934 1.356 0 .527.301 1.28l4.32 10.923 4.017-10.52q.377-.905.377-1.533 0-1.38-1.859-1.506v-.176h4.972v.176q-1.004.1-1.582.728-.577.628-1.23 2.26l-5.775 14.664zM135.985 77.351h.176l-.653 6.554h-12.605v-.176q1.105-.125 1.482-.59.376-.464.376-1.795V68.688q0-1.13-.389-1.594-.39-.465-1.469-.59v-.176h12.279l.502 5.65h-.176q-.703-2.813-1.845-3.993-1.143-1.18-3.453-1.18h-2.662v7.86h1.833q1.582 0 2.36-.779.78-.778 1.08-2.536h.201v7.207h-.2q-.302-1.783-1.093-2.6-.79-.815-2.348-.815h-1.833v8.286h2.612q2.737 0 3.917-1.306 1.18-1.305 1.908-4.77zM138.02 83.905v-.176q1.104-.125 1.48-.59.377-.464.377-1.795V68.688q0-1.13-.389-1.594-.389-.465-1.469-.59v-.176h6.83q3.365 0 4.884 1.067 1.52 1.067 1.52 3.177 0 1.983-1.633 3.151-1.632 1.168-3.992 1.168v.125q1.682-.025 2.937.716 1.256.74 1.859 2.222l1.406 3.315q.954 2.26 2.536 2.435v.201h-4.269q-.427-.703-1.28-2.687l-1.381-3.34q-.704-1.631-1.356-2.159-.653-.527-2.034-.527h-1.381v6.152q0 1.255.401 1.758.402.502 1.482.627v.176zm4.645-9.14h1.23q2.26 0 3.277-1.03 1.017-1.029 1.017-3.113 0-1.883-.829-2.85-.828-.967-3.063-.967h-1.632z"/></g><g fill="#f9f9f9"><path d="M19.977 96.46h4.771v.176q-1.557.1-2.812 2.41l-3.767 6.906v5.9q.076 1.055.64 1.47.566.414 2.072.54v.175h-8.21v-.176q1.631-.1 2.171-.602.54-.503.54-1.858v-5.349l-3.842-7.056q-.703-1.306-1.255-1.808-.553-.502-1.381-.552v-.176h6.78v.176Q14 96.786 14 97.89q0 .477.452 1.306l3.365 6.227 3.264-5.926q.527-.929.527-1.556 0-1.156-1.632-1.306zM33.11 114.54q-3.817 0-6.278-2.612-2.46-2.612-2.46-6.68 0-4.067 2.46-6.679 2.461-2.611 6.278-2.611 3.842 0 6.29 2.611 2.448 2.612 2.448 6.68 0 4.067-2.448 6.679-2.448 2.611-6.29 2.611zm-4.169-2.838l.704 1.092q.703 1.092 3.465 1.092t4.18-2.184q1.42-2.185 1.42-6.453 0-8.638-5.6-8.638-5.575 0-5.575 8.638 0 4.268 1.406 6.453zM59.651 96.46v.176q-1.105.125-1.582.728-.477.603-.477 1.984v8.21q0 3.39-1.532 5.186-1.531 1.795-4.62 1.795-3.189 0-4.909-1.82-1.72-1.82-1.72-5.311V98.82q0-1.13-.39-1.594-.388-.465-1.493-.59v-.176h6.754v.176q-1.18.15-1.594.602-.415.452-.415 1.683v8.286q0 2.963 1.18 4.495t3.466 1.532q4.645 0 4.645-6.127v-7.659q0-1.406-.628-2.046-.627-.64-2.059-.766v-.176zM79.79 95.908h.125v6.453h-.176q-.326-3.038-1.356-4.18-1.03-1.143-3.089-1.143h-1.029V111.4q0 1.355.54 1.858.54.502 2.172.602v.176h-8.211v-.176q1.632-.1 2.172-.602.54-.503.54-1.858V97.038h-1.03q-2.059 0-3.088 1.142-1.03 1.143-1.356 4.18h-.176v-6.452h.126q.552.552 1.958.552h9.919q1.406 0 1.958-.552zM81.095 114.037v-.176q1.105-.125 1.481-.59.377-.464.377-1.795V98.82q0-1.13-.39-1.594-.388-.465-1.468-.59v-.176h6.83q3.365 0 4.884 1.067 1.519 1.067 1.519 3.177 0 1.983-1.632 3.151-1.632 1.168-3.993 1.168v.125q1.683-.025 2.938.716 1.256.74 1.858 2.222l1.406 3.315q.955 2.26 2.537 2.435v.201h-4.27q-.426-.703-1.28-2.687l-1.38-3.34q-.704-1.631-1.357-2.159-.653-.527-2.034-.527h-1.38v6.152q0 1.255.401 1.758.402.502 1.481.627v.176zm4.645-9.14h1.23q2.26 0 3.277-1.03 1.017-1.029 1.017-3.113 0-1.883-.828-2.85-.829-.967-3.064-.967H85.74zM113.487 111.476q.452 1.306.879 1.758.427.452 1.305.627v.176h-6.604v-.176q1.206-.175 1.47-.778.263-.603-.24-2.009l-1.204-3.49h-6.504l-1.205 3.465q-.427 1.507-.05 2.084.376.578 1.607.728v.176h-4.997v-.176q1.03-.175 1.594-.766.565-.59 1.067-2.02l5.198-14.615h2.31zm-10.697-4.495h6.102l-3.039-8.763zM122 114.288l-6.103-15.116q-.527-1.33-1.042-1.883-.514-.553-1.469-.653v-.176h7.132v.176q-1.934.125-1.934 1.356 0 .527.301 1.28l4.32 10.923 4.017-10.52q.377-.905.377-1.533 0-1.38-1.859-1.506v-.176h4.972v.176q-1.004.1-1.582.728-.577.628-1.23 2.26l-5.775 14.664zM144.673 107.483h.176l-.653 6.554h-12.605v-.176q1.105-.125 1.482-.59.376-.464.376-1.795V98.82q0-1.13-.389-1.594-.39-.465-1.469-.59v-.176h12.279l.502 5.65h-.176q-.703-2.813-1.845-3.993-1.143-1.18-3.453-1.18h-2.662v7.86h1.833q1.582 0 2.36-.779.78-.778 1.08-2.536h.201v7.207h-.2q-.302-1.783-1.093-2.6-.79-.815-2.348-.815h-1.833v8.286h2.612q2.737 0 3.917-1.306 1.18-1.305 1.908-4.77zM159.036 107.282h.201l-.678 6.755h-11.852v-.176q1.105-.125 1.482-.59.376-.464.376-1.795V98.82q0-1.13-.389-1.594-.389-.465-1.469-.59v-.176h6.529v.176q-1.105.125-1.494.59-.39.464-.39 1.594v14.74h1.507q1.557 0 2.587-.339 1.03-.339 1.72-1.168.69-.828 1.104-1.92.415-1.093.766-2.85z"/></g></svg>