<svg width="122.473" height="49.419" viewBox="0 0 122.473 49.419" xmlns="http://www.w3.org/2000/svg"><g fill="#f9f9f9"><path d="M4.017 11.91c1.662 0 2.89-1.064 2.89-2.468 0-1.58-.982-2.141-2.843-2.434-1.708-.257-2.012-.678-2.012-1.497 0-.784.597-1.358 1.743-1.358 1.158 0 1.767.433 1.966 1.486h.912C6.51 4.153 5.468 3.334 3.795 3.334c-1.58 0-2.69.983-2.69 2.27 0 1.486 1.04 2.036 2.795 2.305 1.592.258 2.025.655 2.025 1.603s-.831 1.58-1.908 1.58c-1.684 0-2.082-.843-2.21-1.837H.822c.152 1.427.96 2.656 3.194 2.656zM10.44 11.887c.399 0 .633-.058.831-.129v-.819c-.21.082-.444.13-.748.13-.492 0-.76-.293-.76-.89V6.505h1.427v-.819H9.762V4.294h-.97v1.392h-.878v.82h.877v3.767c0 .959.538 1.614 1.65 1.614zM14.325 11.91c.901 0 1.451-.304 1.907-.877v.772h.971V7.77c0-1.708-1.064-2.188-2.234-2.188-1.182 0-2.294.515-2.422 1.907h.97c.094-.749.562-1.1 1.405-1.1.936 0 1.31.41 1.31 1.38v.445h-.877c-1.568 0-3.066.48-3.066 1.896 0 1.252.901 1.802 2.036 1.802zm.094-.772c-.854 0-1.159-.397-1.159-1.03 0-.9.901-1.204 2.13-1.204h.842v.76c0 .948-.784 1.474-1.813 1.474zM19.485 13.935h.983l3.381-8.249h-.995l-1.696 4.388-1.872-4.388h-1.041l2.398 5.487zM30.764 11.91c1.474 0 2.539-.982 2.667-2.304h-.9c-.106.994-.89 1.497-1.756 1.497-1.181 0-2-.795-2-2.293v-.094c0-1.439.854-2.328 1.965-2.328.843 0 1.545.363 1.697 1.334h.96c-.188-1.556-1.381-2.141-2.657-2.141-1.638 0-2.972 1.263-2.972 3.135v.094c0 1.895 1.287 3.1 2.996 3.1zM34.917 11.805h.983V2.761h-.983zM40.428 11.91c1.743 0 3.018-1.275 3.018-3.123v-.094c0-1.837-1.275-3.112-3.006-3.112-1.732 0-3.007 1.287-3.007 3.124v.093c0 1.79 1.252 3.113 2.995 3.113zm.012-.807c-1.24 0-2.001-.912-2.001-2.305v-.093c0-1.404.772-2.317 2-2.317 1.217 0 2.001.913 2.001 2.328v.082c0 1.381-.772 2.305-2 2.305zM46.851 11.91c1.486 0 2.247-.748 2.247-1.86 0-1.298-.89-1.58-2.153-1.813-1.123-.2-1.428-.421-1.428-.971 0-.527.457-.878 1.159-.878.772 0 1.146.293 1.287.96h.936c-.164-1.323-1.112-1.767-2.212-1.767-.959 0-2.07.585-2.07 1.72 0 1.064.538 1.51 2.129 1.802.948.175 1.427.386 1.427 1.03 0 .654-.41.97-1.334.97-.982 0-1.368-.456-1.439-1.181h-.947c.058 1.251.936 1.989 2.398 1.989zM53.076 11.91c1.38 0 2.398-.643 2.609-1.871h-.971c-.13.713-.679 1.064-1.627 1.064-1.252 0-1.919-.772-1.965-2.164h4.61v-.316c0-2.188-1.334-3.042-2.75-3.042-1.685 0-2.867 1.287-2.867 3.135v.094c0 1.884 1.229 3.1 2.96 3.1zm-1.92-3.755c.165-1.088.831-1.767 1.826-1.767 1.006 0 1.661.503 1.755 1.767zM62.178 11.887c.398 0 .632-.058.83-.129v-.819c-.21.082-.444.13-.748.13-.491 0-.76-.293-.76-.89V6.505h1.427v-.819H61.5V4.294h-.972v1.392h-.877v.82h.877v3.767c0 .959.539 1.614 1.65 1.614zM67.01 11.91c1.744 0 3.019-1.275 3.019-3.123v-.094c0-1.837-1.275-3.112-3.007-3.112-1.732 0-3.007 1.287-3.007 3.124v.093c0 1.79 1.252 3.113 2.995 3.113zm.012-.807c-1.24 0-2-.912-2-2.305v-.093c0-1.404.771-2.317 2-2.317 1.217 0 2 .913 2 2.328v.082c0 1.381-.772 2.305-2 2.305zM76.499 11.887c.398 0 .632-.058.83-.129v-.819c-.21.082-.444.13-.748.13-.492 0-.76-.293-.76-.89V6.505h1.427v-.819H75.82V4.294h-.97v1.392h-.878v.82h.877v3.767c0 .959.538 1.614 1.65 1.614zM78.792 11.805h.971V8.096c0-1.1.808-1.673 1.708-1.673.983 0 1.44.48 1.44 1.556v3.826h.97V8.05c0-1.779-.889-2.47-2.152-2.47-1.006 0-1.685.504-1.966 1.077V2.761h-.97zM88.293 11.91c1.38 0 2.398-.643 2.609-1.871h-.971c-.13.713-.679 1.064-1.627 1.064-1.252 0-1.919-.772-1.965-2.164h4.61v-.316c0-2.188-1.334-3.042-2.75-3.042-1.685 0-2.867 1.287-2.867 3.135v.094c0 1.884 1.229 3.1 2.96 3.1zm-1.92-3.755c.165-1.088.831-1.767 1.826-1.767 1.006 0 1.661.503 1.755 1.767zM98.074 11.91c1.474 0 2.539-.982 2.667-2.304h-.9c-.106.994-.89 1.497-1.756 1.497-1.181 0-2-.795-2-2.293v-.094c0-1.439.854-2.328 1.965-2.328.843 0 1.545.363 1.697 1.334h.96c-.188-1.556-1.381-2.141-2.657-2.141-1.638 0-2.971 1.263-2.971 3.135v.094c0 1.895 1.287 3.1 2.995 3.1zM102.695 4.41a.65.65 0 00.644-.643.65.65 0 00-.644-.643.65.65 0 00-.643.643.65.65 0 00.643.644zm-.468 7.395h.971V5.686h-.97zM107.048 11.887c.397 0 .631-.058.83-.129v-.819c-.21.082-.444.13-.748.13-.492 0-.76-.293-.76-.89V6.505h1.426v-.819h-1.427V4.294h-.971v1.392h-.878v.82h.878v3.767c0 .959.538 1.614 1.65 1.614zM109.89 13.935h.984l3.38-8.249h-.994l-1.696 4.388-1.872-4.388h-1.041l2.398 5.487zM115.811 6.096l1.369-2.364-.924-.42-1.042 2.48zM119.473 11.91c1.486 0 2.246-.748 2.246-1.86 0-1.298-.889-1.58-2.152-1.813-1.124-.2-1.428-.421-1.428-.971 0-.527.457-.878 1.159-.878.772 0 1.146.293 1.287.96h.936c-.164-1.323-1.112-1.767-2.212-1.767-.96 0-2.07.585-2.07 1.72 0 1.064.538 1.51 2.129 1.802.947.175 1.427.386 1.427 1.03 0 .654-.41.97-1.334.97-.982 0-1.369-.456-1.439-1.181h-.947c.058 1.251.936 1.989 2.398 1.989z"/></g><g fill="#f9f9f9"><path d="M4.275 28.29c1.685 0 2.784-1.286 2.784-3.158v-.094c0-1.907-1.181-3.077-2.784-3.077-.89 0-1.72.538-2.071 1.135V19.14h-.971v9.044h.971V27.18c.351.608 1.076 1.112 2.07 1.112zm-.094-.807c-1.193 0-2.012-.737-2.012-2.305v-.093c0-1.568.866-2.317 2-2.317 1.03 0 1.884.772 1.884 2.317v.093c0 1.486-.655 2.305-1.872 2.305zM11.073 28.29c1.38 0 2.398-.643 2.609-1.871h-.971c-.13.713-.679 1.064-1.627 1.064-1.252 0-1.919-.772-1.965-2.164h4.61v-.316c0-2.188-1.334-3.042-2.75-3.042-1.685 0-2.867 1.287-2.867 3.135v.094c0 1.884 1.229 3.1 2.96 3.1zm-1.92-3.755c.165-1.088.831-1.767 1.826-1.767 1.006 0 1.661.503 1.755 1.767zM17.168 28.29c1.486 0 2.247-.748 2.247-1.86 0-1.298-.89-1.58-2.153-1.813-1.123-.2-1.428-.421-1.428-.971 0-.527.457-.878 1.159-.878.772 0 1.146.293 1.287.96h.936c-.164-1.323-1.112-1.767-2.212-1.767-.959 0-2.07.585-2.07 1.72 0 1.064.538 1.51 2.129 1.802.948.175 1.427.386 1.427 1.03 0 .654-.41.97-1.333.97-.983 0-1.37-.456-1.44-1.181h-.947c.058 1.251.936 1.989 2.398 1.989zM22.75 28.267c.397 0 .631-.058.83-.129v-.819c-.21.082-.445.13-.749.13-.491 0-.76-.293-.76-.89v-3.674h1.427v-.819h-1.427v-1.392h-.972v1.392h-.877v.82h.877v3.767c0 .959.539 1.614 1.65 1.614zM29.371 28.185h1.065l1.427-4.586 1.276 4.586h1.076l1.907-6.119h-.994l-1.44 4.926-1.392-4.926h-.842l-1.486 4.926-1.427-4.926h-1.053zM37.924 20.79a.65.65 0 00.644-.643.65.65 0 00-.644-.643.65.65 0 00-.643.643.65.65 0 00.643.644zm-.468 7.395h.971v-6.119h-.97zM42.276 28.267c.398 0 .632-.058.831-.129v-.819c-.21.082-.444.13-.749.13-.491 0-.76-.293-.76-.89v-3.674h1.427v-.819h-1.427v-1.392h-.971v1.392h-.878v.82h.878v3.767c0 .959.538 1.614 1.65 1.614zM44.57 28.185h.97v-3.709c0-1.1.808-1.673 1.709-1.673.983 0 1.44.48 1.44 1.556v3.826h.97V24.43c0-1.779-.889-2.47-2.153-2.47-1.006 0-1.684.504-1.965 1.077v-3.896h-.971zM57.206 28.29c1.474 0 2.539-.982 2.667-2.304h-.9c-.106.994-.89 1.497-1.756 1.497-1.181 0-2-.795-2-2.293v-.094c0-1.439.854-2.328 1.965-2.328.843 0 1.545.363 1.697 1.334h.96c-.188-1.556-1.381-2.141-2.657-2.141-1.638 0-2.972 1.264-2.972 3.136v.093c0 1.895 1.287 3.1 2.996 3.1zM63.875 28.29c1.743 0 3.018-1.275 3.018-3.123v-.094c0-1.837-1.275-3.112-3.007-3.112-1.731 0-3.007 1.287-3.007 3.124v.093c0 1.79 1.252 3.113 2.996 3.113zm.011-.807c-1.24 0-2-.912-2-2.305v-.093c0-1.404.772-2.317 2-2.317 1.217 0 2.001.913 2.001 2.328v.082c0 1.381-.772 2.305-2 2.305zM68.403 28.185h.97v-3.744c0-1.1.82-1.638 1.615-1.638.843 0 1.299.445 1.299 1.521v3.861h.971v-3.744c0-1.1.82-1.638 1.615-1.638.842 0 1.298.445 1.298 1.521v3.861h.971v-3.79c0-1.779-.959-2.434-2.059-2.434-.76 0-1.673.35-2.094 1.146-.316-.819-1.006-1.146-1.79-1.146-.878 0-1.545.468-1.825 1.041v-.936h-.971zM79.26 28.185h.971v-5.3h1.498v-.819H80.23v-1.1c0-.62.258-1.053.89-1.053.269 0 .514.059.69.13v-.82a1.966 1.966 0 00-.726-.117c-1.216 0-1.825.725-1.825 1.966v.994h-.877v.82h.877zM85.344 28.29c1.743 0 3.019-1.275 3.019-3.123v-.094c0-1.837-1.276-3.112-3.007-3.112-1.732 0-3.007 1.287-3.007 3.124v.093c0 1.79 1.252 3.113 2.995 3.113zm.012-.807c-1.24 0-2-.912-2-2.305v-.093c0-1.404.771-2.317 2-2.317 1.217 0 2 .913 2 2.328v.082c0 1.381-.772 2.305-2 2.305zM89.872 28.185h.971v-3.358c0-1.509.784-1.895 2.013-1.954v-.912c-1.1.035-1.627.515-2.013 1.205v-1.1h-.97zM96.19 28.267c.398 0 .632-.058.83-.129v-.819c-.21.082-.444.13-.748.13-.491 0-.76-.293-.76-.89v-3.674h1.427v-.819H95.51v-1.392h-.97v1.392h-.878v.82h.877v3.767c0 .959.539 1.614 1.65 1.614zM103.444 28.267c.398 0 .632-.058.83-.129v-.819c-.21.082-.444.13-.748.13-.491 0-.76-.293-.76-.89v-3.674h1.427v-.819h-1.428v-1.392h-.97v1.392h-.878v.82h.877v3.767c0 .959.539 1.614 1.65 1.614zM105.737 28.185h.971v-3.709c0-1.1.808-1.673 1.709-1.673.982 0 1.439.48 1.439 1.556v3.826h.97V24.43c0-1.779-.888-2.47-2.152-2.47-1.006 0-1.685.504-1.966 1.077v-3.896h-.97zM114.267 28.29c.9 0 1.45-.304 1.907-.877v.772h.97V24.15c0-1.708-1.064-2.188-2.234-2.188-1.182 0-2.293.515-2.422 1.907h.971c.094-.749.562-1.1 1.404-1.1.936 0 1.31.41 1.31 1.38v.445h-.877c-1.568 0-3.065.48-3.065 1.896 0 1.252.9 1.802 2.036 1.802zm.093-.772c-.854 0-1.158-.397-1.158-1.03 0-.9.9-1.204 2.13-1.204h.842v.76c0 .948-.784 1.474-1.814 1.474zM120.912 28.267c.398 0 .632-.058.83-.129v-.819c-.21.082-.444.13-.748.13-.491 0-.76-.293-.76-.89v-3.674h1.427v-.819h-1.427v-1.392h-.972v1.392h-.877v.82h.877v3.767c0 .959.539 1.614 1.65 1.614z"/></g><g fill="#f9f9f9"><path d="M21.608 44.565h.972v-5.3h1.497v-.819H22.58v-1.1c0-.62.257-1.053.889-1.053.269 0 .515.059.69.13v-.82a1.966 1.966 0 00-.725-.117c-1.217 0-1.826.725-1.826 1.966v.994h-.877v.82h.877zM27.657 44.67c1.38 0 2.399-.643 2.61-1.871h-.972c-.128.713-.678 1.064-1.626 1.064-1.252 0-1.919-.772-1.966-2.164h4.61v-.316c0-2.188-1.334-3.042-2.75-3.042-1.684 0-2.866 1.287-2.866 3.135v.094c0 1.884 1.229 3.1 2.96 3.1zm-1.918-3.755c.163-1.088.83-1.767 1.825-1.767 1.006 0 1.661.503 1.755 1.767zM34.303 44.67c1.38 0 2.398-.643 2.609-1.871h-.971c-.129.713-.679 1.064-1.626 1.064-1.252 0-1.92-.772-1.966-2.164h4.61v-.316c0-2.188-1.334-3.042-2.75-3.042-1.684 0-2.866 1.287-2.866 3.135v.094c0 1.884 1.228 3.1 2.96 3.1zm-1.919-3.755c.164-1.088.83-1.767 1.825-1.767 1.007 0 1.662.503 1.755 1.767zM38.468 44.565h.983v-9.044h-.983zM43.335 44.67c1.486 0 2.247-.748 2.247-1.86 0-1.298-.89-1.58-2.153-1.813-1.123-.2-1.427-.421-1.427-.971 0-.527.456-.878 1.158-.878.772 0 1.146.293 1.287.96h.936c-.164-1.322-1.112-1.767-2.211-1.767-.96 0-2.071.585-2.071 1.72 0 1.065.538 1.51 2.129 1.802.948.175 1.427.386 1.427 1.03 0 .654-.41.97-1.333.97-.983 0-1.37-.456-1.44-1.181h-.947c.058 1.252.936 1.989 2.398 1.989zM50.18 44.565h.983v-9.044h-.983zM53.643 37.17a.65.65 0 00.644-.643.65.65 0 00-.644-.643.65.65 0 00-.643.643.65.65 0 00.643.644zm-.468 7.395h.971v-6.119h-.971zM56.135 44.565h.971v-3.17l2.715 3.17h1.181L58.16 41.29l2.621-2.843h-1.135l-2.539 2.82V35.52h-.97zM64.442 44.67c1.38 0 2.399-.643 2.61-1.871h-.972c-.129.713-.678 1.064-1.626 1.064-1.252 0-1.919-.772-1.966-2.164h4.61v-.316c0-2.188-1.334-3.042-2.75-3.042-1.684 0-2.866 1.287-2.866 3.135v.094c0 1.884 1.229 3.1 2.96 3.1zm-1.919-3.755c.164-1.088.831-1.767 1.826-1.767 1.006 0 1.66.503 1.755 1.767zM71.684 44.565h.972v-3.709c0-1.1.807-1.673 1.708-1.673.983 0 1.439.48 1.439 1.556v3.826h.97V40.81c0-1.779-.888-2.47-2.152-2.47-1.006 0-1.685.504-1.965 1.077v-3.896h-.972zM81.22 44.67c1.743 0 3.019-1.275 3.019-3.123v-.094c0-1.837-1.276-3.112-3.007-3.112-1.732 0-3.007 1.287-3.007 3.124v.093c0 1.79 1.252 3.113 2.995 3.113zm.012-.807c-1.24 0-2.001-.912-2.001-2.305v-.093c0-1.404.772-2.317 2-2.317 1.217 0 2.001.913 2.001 2.328v.082c0 1.381-.772 2.305-2 2.305zM85.748 44.565h.97v-3.744c0-1.1.82-1.638 1.616-1.638.842 0 1.298.445 1.298 1.521v3.861h.971v-3.744c0-1.1.82-1.638 1.615-1.638.842 0 1.299.445 1.299 1.521v3.861h.97v-3.79c0-1.779-.959-2.434-2.058-2.434-.761 0-1.674.35-2.095 1.146-.316-.819-1.006-1.146-1.79-1.146-.877 0-1.544.468-1.825 1.041v-.936h-.971zM98.899 44.67c1.38 0 2.398-.643 2.609-1.871h-.971c-.13.713-.679 1.064-1.627 1.064-1.252 0-1.918-.772-1.965-2.164h4.61v-.316c0-2.188-1.334-3.042-2.75-3.042-1.685 0-2.866 1.287-2.866 3.135v.094c0 1.884 1.228 3.1 2.96 3.1zm-1.92-3.755c.165-1.088.832-1.767 1.826-1.767 1.006 0 1.661.503 1.755 1.767z"/></g></svg>